<svg xmlns="http://www.w3.org/2000/svg" xmlns:xlink="http://www.w3.org/1999/xlink" version="1.1" x="0px" y="0px" viewBox="-55 147 500 625" style="enable-background:new -55 147 500 500;" xml:space="preserve"><path d="M362.6,527.4c-10.9,0-19.9,9-19.9,20c-0.1,20-3.7,33.8-10.4,40.1c-1.4,1.3-3,2.3-4.8,3.2c2.7-13.7,4.1-29.9,4.1-48.6  c0-54.9-10.6-106.7-29.9-145.7c-16.2-32.7-37-53.5-59.8-60.2c0.5-2.3,0.8-4.5,1-6.9c33.4-7.5,58.3-36.3,58.3-70.5  c0.1-61.7-52.3-111.8-116.6-111.8h-60.4C59.8,147,7.5,197.1,7.5,258.7c0,34.3,24.9,63,58.3,70.6c1,10.2,4.3,19.8,9.5,28.5  c-8.8,9.2-13.7,21.5-13.7,34.3v205c0,27.4,22.2,49.8,49.4,49.8c18.7,0,35-10.5,43.4-25.9c8.4,15.4,24.7,25.9,43.4,25.9  c9.4,0,18.3-2.7,25.8-7.3c6,6.5,18,7.5,32.2,7.5c2.9,0,5.9,0,9-0.1c3.5,0,7.1-0.1,10.9-0.1c13.2,0,24-4.5,32.6-13.3  c1.4,0.1,2.8,0.1,4.1,0.1c19.5,0,35.4-5.6,47.2-16.7c15.3-14.4,22.9-37,23-69.2C382.6,536.6,373.7,527.5,362.6,527.4z M19.6,258.7  c0-54.9,46.9-99.5,104.6-99.5h60.4c57.7,0,104.6,44.7,104.6,99.5c0,27.4-19.4,50.6-45.9,57.9v-82.2c0-3.4-2.7-6.1-6-6.1  s-6,2.7-6,6.1v88.3c0,35.6-34.5,64.6-76.8,64.6c-27.9,0-52.4-12.6-65.9-31.4c-0.2-0.4-0.4-0.8-0.7-1.1l-0.1-0.1  c-6.4-9.4-10.1-20.3-10.1-32v-88.3c0-3.4-2.7-6.1-6-6.1s-6,2.7-6,6.1v82.3C39,309.4,19.6,286.2,19.6,258.7z M275.6,634.6  c-3.8,0-7.5,0.1-11,0.1c-13.8,0.2-27,0.4-31.4-3c8.6-9,14-21.2,14-34.7V454.4c0-3.4-2.7-6.1-6-6.1s-6,2.7-6,6.1V597  c0,11.4-5.1,21.7-13.1,28.6c-0.2,0.2-0.4,0.3-0.6,0.5c-6.4,5.3-14.7,8.5-23.6,8.5c-20.6,0-37.3-16.9-37.3-37.6v-97.9  c9.3-0.7,18.1-3,25.3-6.8c3-1.5,4.1-5.2,2.6-8.2s-5.2-4.2-8.1-2.6c-7.1,3.7-16.2,5.7-25.8,5.7c-9.5,0-18.7-2-25.8-5.7  c-3-1.5-6.6-0.4-8.1,2.6s-0.4,6.7,2.6,8.2c7.2,3.7,16,6.1,25.3,6.8V597c0,20.7-16.7,37.6-37.3,37.6S74,617.7,74,597V392  c0-8.9,3.2-17.5,8.9-24.2c16.2,19.1,42.3,31.6,71.8,31.6c38.8,0,71.9-21.6,84-51.6c19.5,5.7,37.8,24.3,52.5,54  c18.4,37.4,28.6,87.2,28.6,140.3c0,32.5-4.1,56.9-12.3,72.3C299.9,628,289.6,634.6,275.6,634.6z M351.2,608  c-8.6,8-20,12.5-34.2,13.3c2.7-4.9,5-10.5,7-16.8c6.7-1.4,12.2-4,16.5-8.1c9.4-8.9,14.1-24.8,14.2-48.9c0-4.3,3.5-7.9,7.9-7.9  c4.3,0,7.8,3.6,7.8,8C370.3,576.2,364,596,351.2,608z"/><ellipse cx="117.1" cy="278.1" rx="16.1" ry="16.2"/><ellipse cx="192.4" cy="278.1" rx="16.1" ry="16.2"/><path d="M149.3,351.1c3.2,1.9,7.1,1.9,10.2,0c6.5-3.9,16.6-11.4,13.9-19.8c-1.5-4.4-6.2-6.9-10.7-6c-14.2,2.9-27.7-4.7-27.7,8.9  C134.9,341.4,143.5,347.7,149.3,351.1z"/><text x="-55" y="662" fill="#000000" font-size="5px" font-weight="bold" font-family="'Helvetica Neue', Helvetica, Arial-Unicode, Arial, Sans-serif">Created by IronSV</text><text x="-55" y="667" fill="#000000" font-size="5px" font-weight="bold" font-family="'Helvetica Neue', Helvetica, Arial-Unicode, Arial, Sans-serif">from the Noun Project</text></svg>