<svg xmlns="http://www.w3.org/2000/svg" data-name="Layer 1" viewBox="0 0 97 121.25" x="0px" y="0px"><title>Artboard 34</title><path d="M93.05,19.48A19.71,19.71,0,0,1,86,15.43a3.34,3.34,0,0,1-.79-1.1,20.24,20.24,0,0,0-6.33-7.8A11.55,11.55,0,0,0,72,4.25H68.51A14.48,14.48,0,0,0,56,11.44C53.3,16.16,51.39,22,50.2,29.21a9.69,9.69,0,0,1-9.59,8.12H26.17A17.3,17.3,0,0,0,18.76,39C12.93,35.6,9.47,31.46,8.47,26.68,7.08,20.08,10.53,13.41,12.7,10a4.18,4.18,0,0,0,.67-2.27,4.27,4.27,0,0,0-1.32-3.08l-.05,0,.05,0a1,1,0,0,1,0,1.39,1,1,0,0,1-.74.32,1,1,0,0,1-.57-.18l-.18-.15-.05,0h0l0,0a1,1,0,0,1,.94-1.67A4.17,4.17,0,0,0,8.65,3.9,4.23,4.23,0,0,0,5.91,5.78C3.1,10.16-1.32,18.9.63,28.27,1.94,34.59,5.84,40,12.22,44.33A16.92,16.92,0,0,0,8.9,53.18c-.13,1.71-.19,3.57-.19,5.68A18.23,18.23,0,0,1,4.08,71.53a11.84,11.84,0,0,0-3.23,8V92.19a1,1,0,0,0,1,1H15.54a1,1,0,0,0,.93-.63,4.42,4.42,0,0,0-.09-3.88,7,7,0,0,0-4-3V80.25C25.53,76,30,69.54,31,67.64a13.86,13.86,0,0,1,9.16,2.56c4.33,3.06,10.35,3.45,12.76,3.48V85.83a6.61,6.61,0,0,0,6.6,6.6h9.1a1,1,0,0,0,.72-.3,1,1,0,0,0,.28-.73c-.11-3.54-3-5.26-5.07-5.84V69.83A12.68,12.68,0,0,0,76.23,57.21v-18c.91-4.27,5.22-4.92,8.68-4.71A11.39,11.39,0,0,0,96.67,26a.38.38,0,0,1,0-.1l-1-.26,1,.24A5.43,5.43,0,0,0,93.05,19.48ZM72.37,34.11A8.93,8.93,0,0,1,68,38.76a6.74,6.74,0,0,1-2.78.61,5.58,5.58,0,0,1-2.63-.63,7.59,7.59,0,0,1-3.41-4.61A17.29,17.29,0,0,1,61,19.51a1,1,0,0,1,1.69,1.08A15.45,15.45,0,0,0,61.06,33.5,5.74,5.74,0,0,0,63.5,37a4.23,4.23,0,0,0,3.66,0,7,7,0,0,0,3.37-3.62,11.31,11.31,0,0,0,.77-5.23,16.3,16.3,0,0,0-5.35-11,1,1,0,1,1,1.34-1.49,18.32,18.32,0,0,1,6,12.33A13.09,13.09,0,0,1,72.37,34.11Zm5-16.73a.8.8,0,0,0-.8.8,1,1,0,1,1-2,0,2.81,2.81,0,0,1,2.8-2.8,1,1,0,1,1,0,2Z"/><path d="M40.71,72.86a16.08,16.08,0,0,1-1.68-1,12.09,12.09,0,0,0-6.86-2.24c-1.38,2-4.56,5.8-11,9.19v7.15a7.27,7.27,0,0,0,7.27,7.26h8.79A1,1,0,0,0,38,92.8a1,1,0,0,0,.18-.87,8.63,8.63,0,0,0-6.36-6.41V80.88C37,78.46,39.53,75.26,40.71,72.86Z"/><path d="M72.74,86.36V68.62a14.43,14.43,0,0,1-6.17,2.94V84.17a8.05,8.05,0,0,1,5.07,7.17,2.74,2.74,0,0,1-.18,1.1H75a1,1,0,0,0,1-1A5.93,5.93,0,0,0,72.74,86.36Z"/><path d="M11.89,4.54l.11.09h0l-.15-.13a1.16,1.16,0,0,0-.42-.2,3.75,3.75,0,0,1,.44.24Z"/><text x="0" y="112" fill="#000000" font-size="5px" font-weight="bold" font-family="'Helvetica Neue', Helvetica, Arial-Unicode, Arial, Sans-serif">Created by Bernd Lakenbrink</text><text x="0" y="117" fill="#000000" font-size="5px" font-weight="bold" font-family="'Helvetica Neue', Helvetica, Arial-Unicode, Arial, Sans-serif">from the Noun Project</text></svg>